# xmcd CD database file
#
# Track frame offsets:
#	150
#	12845
#	22544
#	32083
#	47857
#	59549
#	68816
#	79978
#	93589
#	104295
#	115224
#	126900
#
# Disc length: 1836 seconds
#
# Revision: 0
# Processed by: cddbd v1.5.1PL2 Copyright (c) Steve Scherf et al.
# Submitted via: CDex 1.51
#
DISCID=99072a0c
DTITLE=Lost Highway - Lost Highway
DYEAR=2004
DGENRE=Country
TTITLE0=Lost highway
TTITLE1=Don't just stand there
TTITLE2=I can't quit
TTITLE3=Freight train
TTITLE4=Pan American
TTITLE5=Alone with you
TTITLE6=Yonder comes a sucker
TTITLE7=Kaw-Li-Ja
TTITLE8=Cryin' time
TTITLE9=Setting the woods on fire
TTITLE10=Midniget special
TTITLE11=I can't help it
EXTD=YEAR: 2004
EXTT0=
EXTT1=
EXTT2=
EXTT3=
EXTT4=
EXTT5=
EXTT6=
EXTT7=
EXTT8=
EXTT9=
EXTT10=
EXTT11=
PLAYORDER=
